<?xml version="1.0" encoding="UTF-8"?>
<svg width="200px" height="200px" viewBox="0 0 200 200" version="1.1" xmlns="http://www.w3.org/2000/svg" xmlns:xlink="http://www.w3.org/1999/xlink">
    <title>ALOT Logo</title>
    <g id="Logo" stroke="none" stroke-width="1" fill="none" fill-rule="evenodd">
        <circle id="Background" fill="#1E40AF" cx="100" cy="100" r="100"></circle>
        <g id="Scissors" transform="translate(40.000000, 60.000000)" fill="#FFFFFF" fill-rule="nonzero">
            <path d="M120,40 C120,35.5817 116.418,32 112,32 C107.582,32 104,35.5817 104,40 C104,44.4183 107.582,48 112,48 C116.418,48 120,44.4183 120,40 Z M112,44 C109.791,44 108,42.2091 108,40 C108,37.7909 109.791,36 112,36 C114.209,36 116,37.7909 116,40 C116,42.2091 114.209,44 112,44 Z" id="Circle"></path>
            <path d="M16,40 C16,35.5817 12.4183,32 8,32 C3.58172,32 0,35.5817 0,40 C0,44.4183 3.58172,48 8,48 C12.4183,48 16,44.4183 16,40 Z M8,44 C5.79086,44 4,42.2091 4,40 C4,37.7909 5.79086,36 8,36 C10.2091,36 12,37.7909 12,40 C12,42.2091 10.2091,44 8,44 Z" id="Circle"></path>
            <path d="M112,36 C110.895,36 110,36.8954 110,38 L110,42 C110,43.1046 110.895,44 112,44 C113.105,44 114,43.1046 114,42 L114,38 C114,36.8954 113.105,36 112,36 Z" id="Line"></path>
            <path d="M8,36 C6.89543,36 6,36.8954 6,38 L6,42 C6,43.1046 6.89543,44 8,44 C9.10457,44 10,43.1046 10,42 L10,38 C10,36.8954 9.10457,36 8,36 Z" id="Line"></path>
            <path d="M110,40 L60,10 C58.8954,9.44772 57.5523,9.89543 57,11 C56.4477,12.1046 56.8954,13.4477 58,14 L108,44 C109.105,44.5523 110.448,44.1046 111,43 C111.552,41.8954 111.105,40.5523 110,40 Z" id="Blade"></path>
            <path d="M10,40 L60,10 C61.1046,9.44772 62.4477,9.89543 63,11 C63.5523,12.1046 63.1046,13.4477 62,14 L12,44 C10.8954,44.5523 9.55228,44.1046 9,43 C8.44772,41.8954 8.89543,40.5523 10,40 Z" id="Blade"></path>
            <path d="M60,70 L60,10 C60,8.89543 59.1046,8 58,8 C56.8954,8 56,8.89543 56,10 L56,70 C56,71.1046 56.8954,72 58,72 C59.1046,72 60,71.1046 60,70 Z" id="Handle"></path>
        </g>
        <text id="ALOT" font-family="Arial-BoldMT, Arial" font-size="28" font-weight="bold" fill="#FFFFFF">
            <tspan x="60" y="150">ALOT</tspan>
        </text>
    </g>
</svg>
