<?xml version="1.0" encoding="UTF-8"?>
<svg width="200px" height="60px" viewBox="0 0 200 60" version="1.1" xmlns="http://www.w3.org/2000/svg" xmlns:xlink="http://www.w3.org/1999/xlink">
    <title>ALOT Logo Color</title>
    <g id="Logo" stroke="none" stroke-width="1" fill="none" fill-rule="evenodd">
        <g id="Logo-Text" transform="translate(10, 10)" fill="#3B82F6">
            <path d="M14.8,40 L0.4,40 L0.4,0.8 L5.6,0.8 L5.6,35.2 L14.8,35.2 L14.8,40 Z" id="L"></path>
            <path d="M44.4,40 L20.4,40 L20.4,0.8 L44.4,0.8 L44.4,5.6 L25.6,5.6 L25.6,17.6 L42,17.6 L42,22.4 L25.6,22.4 L25.6,35.2 L44.4,35.2 L44.4,40 Z" id="E"></path>
            <path d="M74,40 L68.8,40 L68.8,5.6 L56.8,5.6 L56.8,0.8 L86,0.8 L86,5.6 L74,5.6 L74,40 Z" id="T"></path>
            <path d="M112.8,40 L107.6,40 L107.6,22.8 L91.2,22.8 L91.2,40 L86,40 L86,0.8 L91.2,0.8 L91.2,18 L107.6,18 L107.6,0.8 L112.8,0.8 L112.8,40 Z" id="H"></path>
            <path d="M142.4,40 L137.2,40 L137.2,5.6 L125.2,5.6 L125.2,0.8 L154.4,0.8 L154.4,5.6 L142.4,5.6 L142.4,40 Z" id="T"></path>
            <path d="M180,40 L174.8,40 L174.8,0.8 L180,0.8 L180,40 Z" id="I"></path>
        </g>
        <g id="Scissors" transform="translate(120, 15)" fill="#2563EB" fill-rule="nonzero">
            <path d="M30,10 C30,8.89543 29.1046,8 28,8 C26.8954,8 26,8.89543 26,10 C26,11.1046 26.8954,12 28,12 C29.1046,12 30,11.1046 30,10 Z M28,11 C27.4477,11 27,10.5523 27,10 C27,9.44772 27.4477,9 28,9 C28.5523,9 29,9.44772 29,10 C29,10.5523 28.5523,11 28,11 Z" id="Circle"></path>
            <path d="M4,10 C4,8.89543 3.10457,8 2,8 C0.89543,8 0,8.89543 0,10 C0,11.1046 0.89543,12 2,12 C3.10457,12 4,11.1046 4,10 Z M2,11 C1.44772,11 1,10.5523 1,10 C1,9.44772 1.44772,9 2,9 C2.55228,9 3,9.44772 3,10 C3,10.5523 2.55228,11 2,11 Z" id="Circle"></path>
            <path d="M28,9 C27.7239,9 27.5,9.22386 27.5,9.5 L27.5,10.5 C27.5,10.7761 27.7239,11 28,11 C28.2761,11 28.5,10.7761 28.5,10.5 L28.5,9.5 C28.5,9.22386 28.2761,9 28,9 Z" id="Line"></path>
            <path d="M2,9 C1.72386,9 1.5,9.22386 1.5,9.5 L1.5,10.5 C1.5,10.7761 1.72386,11 2,11 C2.27614,11 2.5,10.7761 2.5,10.5 L2.5,9.5 C2.5,9.22386 2.27614,9 2,9 Z" id="Line"></path>
            <path d="M27.5,10 L15,2.5 C14.7239,2.36193 14.3807,2.47386 14.2426,2.75 C14.1046,3.02614 14.2165,3.36193 14.4926,3.5 L27,11 C27.2761,11.1381 27.6193,11.0261 27.7574,10.75 C27.8954,10.4739 27.7835,10.1381 27.5,10 Z" id="Blade"></path>
            <path d="M2.5,10 L15,2.5 C15.2761,2.36193 15.6193,2.47386 15.7574,2.75 C15.8954,3.02614 15.7835,3.36193 15.5074,3.5 L3,11 C2.72386,11.1381 2.38807,11.0261 2.24264,10.75 C2.10457,10.4739 2.21651,10.1381 2.5,10 Z" id="Blade"></path>
            <path d="M15,17.5 L15,2.5 C15,2.22386 14.7761,2 14.5,2 C14.2239,2 14,2.22386 14,2.5 L14,17.5 C14,17.7761 14.2239,18 14.5,18 C14.7761,18 15,17.7761 15,17.5 Z" id="Handle"></path>
        </g>
    </g>
</svg>
